<svg xmlns="http://www.w3.org/2000/svg" viewBox="0 0 123 123" width="123" height="123" preserveAspectRatio="xMidYMid meet" style="width: 100%; height: 100%; transform: translate3d(0px, 0px, 0px);"><defs><clipPath id="__lottie_element_2"><rect width="123" height="123" x="0" y="0"></rect></clipPath><clipPath id="__lottie_element_4"><path d="M0,0 L800,0 L800,800 L0,800z"></path></clipPath><clipPath id="__lottie_element_8"><path d="M0,0 L150,0 L150,150 L0,150z"></path></clipPath><mask id="__lottie_element_17" mask-type="alpha"><g transform="matrix(1,0,0,1,0,0)" opacity="1" style="display: block;"><g opacity="1" transform="matrix(1,0,0,1,75.00299835205078,76.06900024414062)"><path fill="rgb(0,0,0)" fill-opacity="1" d=" M50.70199966430664,0.06400000303983688 C50.70199966430664,0.06400000303983688 30.291000366210938,35.29600143432617 -0.0010000000474974513,35.29600143432617 C-30.29199981689453,35.29600143432617 -50.70199966430664,0.06400000303983688 -50.70199966430664,0.06400000303983688 C-50.70199966430664,0.06400000303983688 -30.29199981689453,-35.297000885009766 -0.0010000000474974513,-35.297000885009766 C30.291000366210938,-35.297000885009766 50.70199966430664,0.06400000303983688 50.70199966430664,0.06400000303983688z"></path></g></g></mask><mask id="__lottie_element_23" mask-type="alpha"><g transform="matrix(1,0,0,1,0,0)" opacity="1" style="display: block;"><g opacity="1" transform="matrix(1,0,0,1,75.00299835205078,76.06900024414062)"><path fill="rgb(0,0,0)" fill-opacity="1" d=" M50.70199966430664,0.06400000303983688 C50.70199966430664,0.06400000303983688 30.291000366210938,35.29600143432617 -0.0010000000474974513,35.29600143432617 C-30.29199981689453,35.29600143432617 -50.70199966430664,0.06400000303983688 -50.70199966430664,0.06400000303983688 C-50.70199966430664,0.06400000303983688 -30.29199981689453,-35.297000885009766 -0.0010000000474974513,-35.297000885009766 C30.291000366210938,-35.297000885009766 50.70199966430664,0.06400000303983688 50.70199966430664,0.06400000303983688z"></path></g></g></mask><clipPath id="__lottie_element_27"><path d="M0,0 L150,0 L150,150 L0,150z"></path></clipPath><mask id="__lottie_element_36" mask-type="alpha"><g transform="matrix(1,0,0,1,0,0)" opacity="1" style="display: block;"><g opacity="1" transform="matrix(1,0,0,1,75.00299835205078,76.06900024414062)"><path fill="rgb(0,0,0)" fill-opacity="1" d=" M50.70199966430664,0.06400000303983688 C50.70199966430664,0.06400000303983688 30.291000366210938,35.29600143432617 -0.0010000000474974513,35.29600143432617 C-30.29199981689453,35.29600143432617 -50.70199966430664,0.06400000303983688 -50.70199966430664,0.06400000303983688 C-50.70199966430664,0.06400000303983688 -30.29199981689453,-35.297000885009766 -0.0010000000474974513,-35.297000885009766 C30.291000366210938,-35.297000885009766 50.70199966430664,0.06400000303983688 50.70199966430664,0.06400000303983688z"></path></g></g></mask><mask id="__lottie_element_42" mask-type="alpha"><g transform="matrix(1,0,0,1,0,0)" opacity="1" style="display: block;"><g opacity="1" transform="matrix(1,0,0,1,75.00299835205078,76.06900024414062)"><path fill="rgb(0,0,0)" fill-opacity="1" d=" M50.70199966430664,0.06400000303983688 C50.70199966430664,0.06400000303983688 30.291000366210938,35.29600143432617 -0.0010000000474974513,35.29600143432617 C-30.29199981689453,35.29600143432617 -50.70199966430664,0.06400000303983688 -50.70199966430664,0.06400000303983688 C-50.70199966430664,0.06400000303983688 -30.29199981689453,-35.297000885009766 -0.0010000000474974513,-35.297000885009766 C30.291000366210938,-35.297000885009766 50.70199966430664,0.06400000303983688 50.70199966430664,0.06400000303983688z"></path></g></g></mask><clipPath id="__lottie_element_46"><path d="M0,0 L150,0 L150,150 L0,150z"></path></clipPath><mask id="__lottie_element_55" mask-type="alpha"><g transform="matrix(1,0,0,1,0,0)" opacity="1" style="display: none;"><g opacity="1" transform="matrix(1,0,0,1,75.00299835205078,76.06900024414062)"><path fill="rgb(0,0,0)" fill-opacity="1" d=" M50.70199966430664,0.06400000303983688 C50.70199966430664,0.06400000303983688 30.291000366210938,20.851999282836914 -0.0010000000474974513,20.851999282836914 C-30.29199981689453,20.851999282836914 -50.70199966430664,0.06400000303983688 -50.70199966430664,0.06400000303983688 C-50.70199966430664,0.06400000303983688 -30.29199981689453,20.009000778198242 -0.0010000000474974513,20.009000778198242 C30.291000366210938,20.009000778198242 50.70199966430664,0.06400000303983688 50.70199966430664,0.06400000303983688z"></path></g></g></mask><mask id="__lottie_element_61" mask-type="alpha"><g transform="matrix(1,0,0,1,0,0)" opacity="1" style="display: none;"><g opacity="1" transform="matrix(1,0,0,1,75.00299835205078,76.06900024414062)"><path fill="rgb(0,0,0)" fill-opacity="1" d=" M50.70199966430664,0.06400000303983688 C50.70199966430664,0.06400000303983688 30.291000366210938,20.851999282836914 -0.0010000000474974513,20.851999282836914 C-30.29199981689453,20.851999282836914 -50.70199966430664,0.06400000303983688 -50.70199966430664,0.06400000303983688 C-50.70199966430664,0.06400000303983688 -30.29199981689453,20.009000778198242 -0.0010000000474974513,20.009000778198242 C30.291000366210938,20.009000778198242 50.70199966430664,0.06400000303983688 50.70199966430664,0.06400000303983688z"></path></g></g></mask></defs><g clip-path="url(#__lottie_element_2)"><g clip-path="url(#__lottie_element_4)" transform="matrix(1,0,0,1,-338.5,-338.5)" opacity="1" style="display: block;"><g clip-path="url(#__lottie_element_27)" transform="matrix(1,0,0,1,325,325)" opacity="1" style="display: none;"><g transform="matrix(0.8899999856948853,0,0,0.7899934649467468,66.08700561523438,72.98799896240234)" opacity="1" style="display: block;"><g opacity="1" transform="matrix(1,0,0,1,8.819000244140625,3.819000005722046)"><path fill="rgb(255,255,255)" fill-opacity="1" d=" M0,-34.06949996948242 C18.80295753479004,-34.06949996948242 34.06949996948242,-18.80295753479004 34.06949996948242,0 C34.06949996948242,18.80295753479004 18.80295753479004,34.06949996948242 0,34.06949996948242 C-18.80295753479004,34.06949996948242 -34.06949996948242,18.80295753479004 -34.06949996948242,0 C-34.06949996948242,-18.80295753479004 -18.80295753479004,-34.06949996948242 0,-34.06949996948242z"></path><path stroke-linecap="butt" stroke-linejoin="miter" fill-opacity="0" stroke-miterlimit="4" stroke="rgb(255,255,255)" stroke-opacity="1" stroke-width="2" d=" M0,-34.06949996948242 C18.80295753479004,-34.06949996948242 34.06949996948242,-18.80295753479004 34.06949996948242,0 C34.06949996948242,18.80295753479004 18.80295753479004,34.06949996948242 0,34.06949996948242 C-18.80295753479004,34.06949996948242 -34.06949996948242,18.80295753479004 -34.06949996948242,0 C-34.06949996948242,-18.80295753479004 -18.80295753479004,-34.06949996948242 0,-34.06949996948242z"></path></g></g><g mask="url(#__lottie_element_36)" style="display: block;"><g transform="matrix(1,0,0,1,0,0)" opacity="1"><g opacity="1" transform="matrix(1,0,0,1,75.00299835205078,76.06900024414062)"><path fill="rgb(0,0,0)" fill-opacity="1" d=" M-0.0010000000474974513,-11.116000175476074 C-6.111000061035156,-11.116000175476074 -11.050999641418457,-5.915999889373779 -11.050999641418457,0.06400000303983688 C-11.050999641418457,6.175000190734863 -6.111000061035156,11.116000175476074 -0.0010000000474974513,11.116000175476074 C5.980000019073486,11.116000175476074 11.180999755859375,6.175000190734863 11.180999755859375,0.06400000303983688 C11.180999755859375,-5.915999889373779 5.980000019073486,-11.116000175476074 -0.0010000000474974513,-11.116000175476074z"></path></g><g opacity="1" transform="matrix(1,0,0,1,75.00299835205078,76.06900024414062)"><path fill="rgb(0,0,0)" fill-opacity="1" d=" M24.832000732421875,0.06400000303983688 C24.832000732421875,-13.586000442504883 13.649999618530273,-24.766000747680664 -0.0010000000474974513,-24.766000747680664 C-13.651000022888184,-24.766000747680664 -24.83099937438965,-13.586000442504883 -24.83099937438965,0.06400000303983688 C-24.83099937438965,13.715999603271484 -13.651000022888184,24.895999908447266 -0.0010000000474974513,24.895999908447266 C13.649999618530273,24.895999908447266 24.832000732421875,13.715999603271484 24.832000732421875,0.06400000303983688z M50.70199966430664,0.06400000303983688 C50.70199966430664,0.06400000303983688 30.291000366210938,35.29600143432617 -0.0010000000474974513,35.29600143432617 C-30.29199981689453,35.29600143432617 -50.70199966430664,0.06400000303983688 -50.70199966430664,0.06400000303983688 C-50.70199966430664,0.06400000303983688 -30.29199981689453,-35.297000885009766 -0.0010000000474974513,-35.297000885009766 C30.291000366210938,-35.297000885009766 50.70199966430664,0.06400000303983688 50.70199966430664,0.06400000303983688z"></path></g></g></g><g mask="url(#__lottie_element_42)" style="display: block;"><g transform="matrix(1,0,0,1,0,0)" opacity="1"><path stroke-linecap="butt" stroke-linejoin="miter" fill-opacity="0" stroke-miterlimit="4" stroke="rgb(0,0,0)" stroke-opacity="1" stroke-width="5" d=" M125.7,76.13 C125.7,76.13 105.29,111.37 75,111.37 C44.71,111.37 24.3,76.13 24.3,76.13 C24.3,76.13 44.71,40.77 75,40.77 C105.29,40.77 125.7,76.13 125.7,76.13z"></path><g opacity="1" transform="matrix(1,0,0,1,75.00299835205078,76.06900024414062)"></g></g></g></g><g clip-path="url(#__lottie_element_8)" transform="matrix(1,0,0,1,325,325)" opacity="1" style="display: block;"><g transform="matrix(0.999530017375946,0,0,-0.8158800005912781,66,81.5)" opacity="1" style="display: block;"><g opacity="1" transform="matrix(1,0,0,1,8.819000244140625,3.819000005722046)"><path fill="rgb(255,255,255)" fill-opacity="1" d=" M0,-34.06949996948242 C18.80295753479004,-34.06949996948242 34.06949996948242,-18.80295753479004 34.06949996948242,0 C34.06949996948242,18.80295753479004 18.80295753479004,34.06949996948242 0,34.06949996948242 C-18.80295753479004,34.06949996948242 -34.06949996948242,18.80295753479004 -34.06949996948242,0 C-34.06949996948242,-18.80295753479004 -18.80295753479004,-34.06949996948242 0,-34.06949996948242z"></path><path stroke-linecap="butt" stroke-linejoin="miter" fill-opacity="0" stroke-miterlimit="4" stroke="rgb(255,255,255)" stroke-opacity="1" stroke-width="2" d=" M0,-34.06949996948242 C18.80295753479004,-34.06949996948242 34.06949996948242,-18.80295753479004 34.06949996948242,0 C34.06949996948242,18.80295753479004 18.80295753479004,34.06949996948242 0,34.06949996948242 C-18.80295753479004,34.06949996948242 -34.06949996948242,18.80295753479004 -34.06949996948242,0 C-34.06949996948242,-18.80295753479004 -18.80295753479004,-34.06949996948242 0,-34.06949996948242z"></path></g></g><g mask="url(#__lottie_element_17)" style="display: block;"><g transform="matrix(1,0,0,1,0,0)" opacity="1"><g opacity="1" transform="matrix(1,0,0,1,74.50299835205078,76.06900024414062)"><path fill="rgb(0,0,0)" fill-opacity="1" d=" M-0.0010000000474974513,-11.116000175476074 C-6.111000061035156,-11.116000175476074 -11.050999641418457,-5.915999889373779 -11.050999641418457,0.06400000303983688 C-11.050999641418457,6.175000190734863 -6.111000061035156,11.116000175476074 -0.0010000000474974513,11.116000175476074 C5.980000019073486,11.116000175476074 11.180999755859375,6.175000190734863 11.180999755859375,0.06400000303983688 C11.180999755859375,-5.915999889373779 5.980000019073486,-11.116000175476074 -0.0010000000474974513,-11.116000175476074z"></path></g><g opacity="1" transform="matrix(1,0,0,1,75.00299835205078,76.06900024414062)"><path fill="rgb(0,0,0)" fill-opacity="1" d=" M24.082000732421875,-0.1860000044107437 C24.082000732421875,-13.836000442504883 12.899999618530273,-25.016000747680664 -0.7509999871253967,-25.016000747680664 C-14.401000022888184,-25.016000747680664 -25.58099937438965,-13.836000442504883 -25.58099937438965,-0.1860000044107437 C-25.58099937438965,13.465999603271484 -14.401000022888184,24.645999908447266 -0.7509999871253967,24.645999908447266 C12.899999618530273,24.645999908447266 24.082000732421875,13.465999603271484 24.082000732421875,-0.1860000044107437z M50.70199966430664,0.06400000303983688 C50.70199966430664,0.06400000303983688 30.291000366210938,35.29600143432617 -0.0010000000474974513,35.29600143432617 C-30.29199981689453,35.29600143432617 -50.70199966430664,0.06400000303983688 -50.70199966430664,0.06400000303983688 C-50.70199966430664,0.06400000303983688 -30.29199981689453,-35.297000885009766 -0.0010000000474974513,-35.297000885009766 C30.291000366210938,-35.297000885009766 50.70199966430664,0.06400000303983688 50.70199966430664,0.06400000303983688z"></path></g></g></g><g mask="url(#__lottie_element_23)" style="display: block;"><g transform="matrix(1,0,0,1,0,0)" opacity="1"><path stroke-linecap="butt" stroke-linejoin="miter" fill-opacity="0" stroke-miterlimit="4" stroke="rgb(0,0,0)" stroke-opacity="1" stroke-width="5" d=" M125.7,76.13 C125.7,76.13 105.29,111.37 75,111.37 C44.71,111.37 24.3,76.13 24.3,76.13 C24.3,76.13 44.71,40.77 75,40.77 C105.29,40.77 125.7,76.13 125.7,76.13z"></path><g opacity="1" transform="matrix(1,0,0,1,75.00299835205078,76.06900024414062)"></g></g></g></g><g clip-path="url(#__lottie_element_46)" transform="matrix(1,0,0,1,325,325)" opacity="1" style="display: none;"><g transform="matrix(0,0,0,0,66.25,96.5)" opacity="1" style="display: block;"><g opacity="1" transform="matrix(1,0,0,1,8.819000244140625,3.819000005722046)"><path fill="rgb(255,255,255)" fill-opacity="1" d=" M0,-34.06949996948242 C18.80295753479004,-34.06949996948242 34.06949996948242,-18.80295753479004 34.06949996948242,0 C34.06949996948242,18.80295753479004 18.80295753479004,34.06949996948242 0,34.06949996948242 C-18.80295753479004,34.06949996948242 -34.06949996948242,18.80295753479004 -34.06949996948242,0 C-34.06949996948242,-18.80295753479004 -18.80295753479004,-34.06949996948242 0,-34.06949996948242z"></path><path stroke-linecap="butt" stroke-linejoin="miter" fill-opacity="0" stroke-miterlimit="4" stroke="rgb(255,255,255)" stroke-opacity="1" stroke-width="2" d=" M0,-34.06949996948242 C18.80295753479004,-34.06949996948242 34.06949996948242,-18.80295753479004 34.06949996948242,0 C34.06949996948242,18.80295753479004 18.80295753479004,34.06949996948242 0,34.06949996948242 C-18.80295753479004,34.06949996948242 -34.06949996948242,18.80295753479004 -34.06949996948242,0 C-34.06949996948242,-18.80295753479004 -18.80295753479004,-34.06949996948242 0,-34.06949996948242z"></path></g></g><g mask="url(#__lottie_element_55)" style="display: none;"><g transform="matrix(1,0,0,1,0,0)" opacity="1"><g opacity="1" transform="matrix(1,0,0,1,75.00299835205078,76.06900024414062)"><path fill="rgb(0,0,0)" fill-opacity="1" d=" M-0.0010000000474974513,-11.116000175476074 C-6.111000061035156,-11.116000175476074 -11.050999641418457,-5.915999889373779 -11.050999641418457,0.06400000303983688 C-11.050999641418457,6.175000190734863 -6.111000061035156,11.116000175476074 -0.0010000000474974513,11.116000175476074 C5.980000019073486,11.116000175476074 11.180999755859375,6.175000190734863 11.180999755859375,0.06400000303983688 C11.180999755859375,-5.915999889373779 5.980000019073486,-11.116000175476074 -0.0010000000474974513,-11.116000175476074z"></path></g><g opacity="1" transform="matrix(1,0,0,1,75.00299835205078,76.06900024414062)"><path fill="rgb(0,0,0)" fill-opacity="1" d=" M24.832000732421875,0.06400000303983688 C24.832000732421875,-13.586000442504883 13.649999618530273,-24.766000747680664 -0.0010000000474974513,-24.766000747680664 C-13.651000022888184,-24.766000747680664 -24.83099937438965,-13.586000442504883 -24.83099937438965,0.06400000303983688 C-24.83099937438965,13.715999603271484 -13.651000022888184,24.895999908447266 -0.0010000000474974513,24.895999908447266 C13.649999618530273,24.895999908447266 24.832000732421875,13.715999603271484 24.832000732421875,0.06400000303983688z M50.70199966430664,0.06400000303983688 C50.70199966430664,0.06400000303983688 30.291000366210938,20.851999282836914 -0.0010000000474974513,20.851999282836914 C-30.29199981689453,20.851999282836914 -50.70199966430664,0.06400000303983688 -50.70199966430664,0.06400000303983688 C-50.70199966430664,0.06400000303983688 -30.29199981689453,20.009000778198242 -0.0010000000474974513,20.009000778198242 C30.291000366210938,20.009000778198242 50.70199966430664,0.06400000303983688 50.70199966430664,0.06400000303983688z"></path></g></g></g><g mask="url(#__lottie_element_61)" style="display: none;"><g transform="matrix(1,0,0,1,0,0)" opacity="1"><path stroke-linecap="butt" stroke-linejoin="miter" fill-opacity="0" stroke-miterlimit="4" stroke="rgb(0,0,0)" stroke-opacity="1" stroke-width="5" d=" M125.7,76.13 C125.7,76.13 105.29,96.92 75,96.92 C44.71,96.92 24.3,76.13 24.3,76.13 C24.3,76.13 44.71,96.08 75,96.08 C105.29,96.08 125.7,76.13 125.7,76.13z"></path><g opacity="1" transform="matrix(1,0,0,1,75.00299835205078,76.06900024414062)"></g></g></g></g></g></g></svg>